<?xml version="1.0" encoding="UTF-8" standalone="no"?>
<svg
   width="716.31805"
   zoomAndPan="magnify"
   viewBox="0 0 537.23854 296.05828"
   height="394.74438"
   preserveAspectRatio="xMidYMid"
   version="1.0"
   id="svg37"
   xmlns="http://www.w3.org/2000/svg"
   xmlns:svg="http://www.w3.org/2000/svg">
  <defs
     id="defs1" />
  <g
     fill="#59bbc7"
     fill-opacity="1"
     id="g4"
     transform="translate(-140.77037,-266.70969)">
    <g
       transform="translate(182.65161,392.25655)"
       id="g3">
      <g
         id="g2">
        <path
           d="m 112.98438,-21.8125 c -0.5,1.59375 -0.75,3.195312 -0.75,4.796875 0,1.355469 0.17968,2.496094 0.54687,3.421875 0.375,0.929688 0.77344,1.667969 1.20313,2.21875 0.4375,0.554688 0.71875,0.953125 0.84375,1.203125 1.22656,1.230469 1.84375,2.464844 1.84375,3.703125 0,0.242188 -0.1211,0.855469 -0.35938,1.84375 -0.5,1.730469 -1.58594,2.933594 -3.25,3.609375 C 111.40625,-0.335938 108.84766,0 105.39063,0 H 61.578125 c -2.59375,0 -4.601563,-0.429688 -6.015625,-1.296875 -1.417969,-0.863281 -2.125,-2.035156 -2.125,-3.515625 0,-0.738281 0.1875,-1.539062 0.5625,-2.40625 0.363281,-0.976562 0.882812,-1.742188 1.5625,-2.296875 0.675781,-0.5625 1.632812,-1.210937 2.875,-1.953125 1.96875,-1.101562 3.566406,-2.332031 4.796875,-3.6875 1.238281,-1.363281 2.285156,-3.582031 3.140625,-6.65625 l 4.8125,-15.90625 H 42.34375 l -5,10.53125 c -2.09375,4.5625 -3.140625,8.140625 -3.140625,10.734375 0,1.480469 0.242187,2.683594 0.734375,3.609375 0.5,0.917969 1.242188,1.871094 2.234375,2.859375 0.851563,0.992187 1.4375,1.824219 1.75,2.5 0.3125,0.679687 0.34375,1.570313 0.09375,2.671875 -0.492187,1.855469 -1.507813,3.121094 -3.046875,3.796875 C 34.425781,-0.335938 31.988281,0 28.65625,0 H 1.109375 c -2.832031,0 -4.988281,-0.519531 -6.46875,-1.5625 -1.476563,-1.050781 -2.21875,-2.441406 -2.21875,-4.171875 0,-1.96875 0.710937,-3.535156 2.125,-4.703125 1.417969,-1.175781 3.542969,-2.441406 6.375,-3.796875 3.695313,-1.851563 6.65625,-3.671875 8.875,-5.453125 2.21875,-1.789062 4.128906,-4.289062 5.734375,-7.5 l 32.921875,-68.21875 c 5.050781,-10.60156 10.992187,-18.27344 17.828125,-23.01563 6.84375,-4.75 15.875,-7.125 27.09375,-7.125 12.57031,0 22.3125,2.5586 29.21875,7.67188 6.90625,5.11719 10.35937,12.23437 10.35937,21.359375 0,3.824219 -0.62109,7.765625 -1.85937,11.828125 z M 76.734375,-56.21875 86.53125,-88.75 c 0.5,-1.476562 0.75,-3.019531 0.75,-4.625 0,-2.34375 -0.652344,-4.097656 -1.953125,-5.265625 -1.292969,-1.175781 -3.109375,-1.765625 -5.453125,-1.765625 -2.960938,0 -5.484375,0.867188 -7.578125,2.59375 -2.09375,1.71875 -4.1875,4.804688 -6.28125,9.25 L 50.84375,-56.21875 Z m 0,0"
           id="path1" />
      </g>
    </g>
  </g>
  <g
     fill="#59bbc7"
     fill-opacity="1"
     id="g7"
     transform="translate(-140.77037,-266.70969)">
    <g
       transform="translate(311.71238,392.25655)"
       id="g6">
      <g
         id="g5">
        <path
           d="m 102.25,0 c -0.98047,3.570312 -1.46875,6.035156 -1.46875,7.390625 0,1.601563 0.39453,2.710937 1.1875,3.328125 0.80078,0.625 2.12891,0.9375 3.98438,0.9375 1.60156,0 3.54687,-0.21875 5.82812,-0.65625 2.28125,-0.429688 3.72656,-0.640625 4.34375,-0.640625 1.47656,0 2.21875,0.984375 2.21875,2.953125 0,3.082031 -1.85156,6.347656 -5.54687,9.796875 -3.69922,3.457031 -8.50782,6.320313 -14.42188,8.59375 -5.917969,2.28125 -11.898438,3.421875 -17.9375,3.421875 -8.875,0 -15.71875,-1.820312 -20.53125,-5.453125 -4.804688,-3.636719 -7.203125,-8.71875 -7.203125,-15.25 0,-3.324219 0.488281,-6.527344 1.46875,-9.609375 l 5,-16.28125 C 51.523438,-3.445312 42.460938,0.5625 31.984375,0.5625 c -5.542969,0 -10.625,-1.320312 -15.25,-3.96875 C 12.109375,-6.0625 8.46875,-10.007812 5.8125,-15.25 3.164062,-20.488281 1.84375,-26.742188 1.84375,-34.015625 c 0,-6.039063 0.738281,-11.835937 2.21875,-17.390625 2.59375,-10.226562 6.628906,-18.820312 12.109375,-25.78125 5.488281,-6.96875 11.835937,-12.144531 19.046875,-15.53125 7.21875,-3.394531 14.707031,-5.09375 22.46875,-5.09375 7.269531,0 13.398438,1.046875 18.390625,3.140625 5,2.09375 9.472656,5.296875 13.421875,9.609375 L 94.859375,-89.5 c 2.582031,-2.21875 5.046875,-3.847656 7.390625,-4.890625 2.34375,-1.050781 5.17969,-1.578125 8.51563,-1.578125 h 8.3125 c 3.08203,0 5.45312,0.652344 7.10937,1.953125 1.66406,1.292969 2.5,3.109375 2.5,5.453125 0,0.617188 -0.24609,1.90625 -0.73437,3.875 z M 75.078125,-63.234375 76.1875,-66.75 c 0.613281,-1.96875 0.921875,-4.003906 0.921875,-6.109375 0,-4.0625 -1.851563,-6.09375 -5.546875,-6.09375 -3.085938,0 -5.984375,1.914063 -8.703125,5.734375 -2.710937,3.824219 -5.605469,10.726562 -8.6875,20.703125 -2.21875,6.78125 -3.328125,12.699219 -3.328125,17.75 0,3.824219 0.644531,6.664063 1.9375,8.515625 1.300781,1.84375 3,2.765625 5.09375,2.765625 1.601562,0 3.019531,-0.707031 4.25,-2.125 1.238281,-1.414063 2.410156,-3.664063 3.515625,-6.75 z m 0,0"
           id="path4" />
      </g>
    </g>
  </g>
  <g
     fill="#59bbc7"
     fill-opacity="1"
     id="g10"
     transform="translate(-140.77037,-266.70969)">
    <g
       transform="translate(437.81473,392.25655)"
       id="g9">
      <g
         id="g8">
        <path
           d="m 109.82813,-25.515625 c -0.24219,0.992187 -0.35938,1.730469 -0.35938,2.21875 0,0.867187 0.21094,1.542969 0.64063,2.03125 0.4375,0.492187 1.02343,0.734375 1.76562,0.734375 1.47656,0 2.73828,-0.644531 3.78125,-1.9375 1.05078,-1.289062 1.75781,-1.9375 2.125,-1.9375 0.61328,0 1.13281,0.402344 1.5625,1.203125 0.4375,0.804687 0.65625,1.757813 0.65625,2.859375 0.125,3.460938 -1.10937,6.882812 -3.70312,10.265625 -2.58594,3.386719 -6.21875,6.195313 -10.90625,8.421875 -4.67969,2.21875 -9.917974,3.328125 -15.718755,3.328125 -7.273437,0 -13.0625,-1.480469 -17.375,-4.4375 -4.3125,-2.96875 -7.085937,-6.851563 -8.3125,-11.65625 -4.4375,4.929687 -9.339844,8.65625 -14.703125,11.1875 -5.367188,2.53125 -10.824219,3.796875 -16.375,3.796875 -8.625,0 -15.867188,-2.125 -21.71875,-6.375 -5.855469,-4.257812 -8.78125,-10.210938 -8.78125,-17.859375 0,-3.445313 0.613281,-7.019531 1.84375,-10.71875 L 16.09375,-73.03125 c 0.363281,-1.113281 0.546875,-2.039062 0.546875,-2.78125 0,-1.351562 -0.308594,-2.429688 -0.921875,-3.234375 -0.617188,-0.800781 -1.542969,-1.632813 -2.78125,-2.5 -1.230469,-0.976563 -2.09375,-1.835937 -2.59375,-2.578125 -0.492188,-0.738281 -0.546875,-1.726562 -0.171875,-2.96875 0.738281,-2.832031 4.617187,-5.328125 11.640625,-7.484375 7.03125,-2.15625 14.367188,-3.234375 22.015625,-3.234375 7.144531,0 12.378906,1.359375 15.703125,4.078125 3.332031,2.710937 5,6.402344 5,11.078125 0,2.835938 -0.433594,5.546875 -1.296875,8.140625 L 51.59375,-36.0625 c -0.5,1.367188 -0.75,2.664062 -0.75,3.890625 0,1.730469 0.492188,3.027344 1.484375,3.890625 0.988281,0.855469 2.285156,1.28125 3.890625,1.28125 2.332031,0 4.238281,-0.675781 5.71875,-2.03125 1.476562,-1.351562 2.957031,-3.632812 4.4375,-6.84375 l 11.28125,-37.15625 c 0.375,-1.113281 0.5625,-2.039062 0.5625,-2.78125 0,-1.351562 -0.3125,-2.429688 -0.9375,-3.234375 -0.617188,-0.800781 -1.476562,-1.632813 -2.578125,-2.5 -1.230469,-0.976563 -2.09375,-1.835937 -2.59375,-2.578125 -0.492187,-0.738281 -0.554687,-1.726562 -0.1875,-2.96875 0.625,-2.832031 4.445313,-5.328125 11.46875,-7.484375 7.03125,-2.15625 14.363281,-3.234375 22.000005,-3.234375 7.15625,0 12.42578,1.359375 15.8125,4.078125 3.39453,2.710937 5.09375,6.339844 5.09375,10.890625 0,2.34375 -0.4961,5.121094 -1.48438,8.328125 z m 0,0"
           id="path7" />
      </g>
    </g>
  </g>
  <g
     fill="#59bbc7"
     fill-opacity="1"
     id="g13"
     transform="translate(-140.77037,-266.70969)">
    <g
       transform="translate(564.6567,392.25655)"
       id="g12">
      <g
         id="g11">
        <path
           d="m 66.015625,-97.8125 c 14.175781,0 25.515625,2.621094 34.015625,7.859375 8.50781,5.242187 12.76563,13.21875 12.76563,23.9375 0,4.074219 -0.74219,8.699219 -2.21875,13.875 L 103,-26.625 c -0.125,0.492188 -0.1875,1.105469 -0.1875,1.84375 0,1.980469 0.80078,2.96875 2.40625,2.96875 1.47656,0 2.73828,-0.644531 3.78125,-1.9375 1.05078,-1.300781 1.75781,-1.953125 2.125,-1.953125 0.61328,0 1.13281,0.433594 1.5625,1.296875 0.4375,0.867188 0.65625,1.851562 0.65625,2.953125 0.125,3.335937 -1.14062,6.726563 -3.79687,10.171875 -2.64844,3.449219 -6.1875,6.289062 -10.625005,8.515625 C 94.484375,-0.546875 89.613281,0.5625 84.3125,0.5625 77.90625,0.5625 72.421875,-0.609375 67.859375,-2.953125 63.296875,-5.296875 60.15625,-8.75 58.4375,-13.3125 54.738281,-8.875 50.359375,-5.453125 45.296875,-3.046875 40.242188,-0.640625 34.820312,0.5625 29.03125,0.5625 22.5,0.5625 17.015625,-0.703125 12.578125,-3.234375 8.140625,-5.765625 4.835938,-9.03125 2.671875,-13.03125 0.515625,-17.039062 -0.5625,-21.265625 -0.5625,-25.703125 c 0,-1.96875 0.1875,-3.878906 0.5625,-5.734375 1.96875,-8.5 6.25,-14.90625 12.84375,-19.21875 6.601562,-4.320312 14.460938,-6.484375 23.578125,-6.484375 10.238281,0 20.285156,1.605469 30.140625,4.8125 l 4.625,-12.203125 c 1.601562,-5.175781 2.40625,-9.179688 2.40625,-12.015625 -0.125,-2.957031 -1.117188,-5.175781 -2.96875,-6.65625 -1.84375,-1.476563 -4.679688,-2.21875 -8.5,-2.21875 0.738281,1.96875 1.109375,4 1.109375,6.09375 0,4.5625 -1.726563,8.511719 -5.171875,11.84375 C 54.613281,-64.160156 49.679688,-62.5 43.265625,-62.5 c -6.042969,0 -10.761719,-1.320312 -14.15625,-3.96875 -3.386719,-2.65625 -5.078125,-5.953125 -5.078125,-9.890625 0,-6.164063 3.453125,-11.28125 10.359375,-15.34375 6.90625,-4.070313 17.445313,-6.109375 31.625,-6.109375 z M 55.65625,-41.78125 c -3.449219,0 -6.257812,1.324219 -8.421875,3.96875 C 45.078125,-35.164062 44,-32.300781 44,-29.21875 c 0,1.980469 0.460938,3.585938 1.390625,4.8125 0.925781,1.230469 2.253906,1.84375 3.984375,1.84375 1.601562,0 3.359375,-0.644531 5.265625,-1.9375 1.90625,-1.289062 3.289063,-3.234375 4.15625,-5.828125 L 62.6875,-41.234375 C 60.59375,-41.597656 58.25,-41.78125 55.65625,-41.78125 Z m 0,0"
           id="path10" />
      </g>
    </g>
  </g>
  <g
     fill="#59bbc7"
     fill-opacity="1"
     id="g16"
     transform="translate(-140.77037,-266.70969)">
    <g
       transform="translate(149.2802,561.09609)"
       id="g15">
      <g
         id="g14">
        <path
           d="m 75.4375,-136.64062 c 13.195312,0 23.09375,2.00781 29.6875,6.01562 6.59375,4 9.89063,8.89844 9.89063,14.6875 0,4.6875 -1.94532,8.29687 -5.82813,10.82812 -3.88672,2.52344 -8.96875,3.78125 -15.25,3.78125 -5.804688,0 -10.308594,-1.41406 -13.515625,-4.25 -3.199219,-2.83203 -4.796875,-6.34765 -4.796875,-10.54687 0,-2.58203 0.800781,-5.28906 2.40625,-8.125 -3.699219,0 -6.78125,0.89844 -9.25,2.6875 -2.460938,1.78125 -4.371094,4.82812 -5.734375,9.14062 -0.742187,2.71094 -1.109375,5.23438 -1.109375,7.57813 0,2.96094 0.523438,5.273438 1.578125,6.9375 1.050781,1.667969 2.5625,2.5 4.53125,2.5 h 10.90625 c 6.40625,0 9.609375,1.96875 9.609375,5.90625 0,0.5 -0.121094,1.242188 -0.359375,2.21875 -0.742187,2.71875 -2.25,4.757812 -4.53125,6.109375 -2.28125,1.355469 -5.703125,2.03125 -10.265625,2.03125 H 67.859375 L 49.5625,-19.234375 C 49.1875,-17.753906 49,-16.457031 49,-15.34375 c 0,1.605469 0.304688,2.871094 0.921875,3.796875 0.613281,0.917969 1.476563,1.808594 2.59375,2.671875 0.863281,0.867188 1.476563,1.574219 1.84375,2.125 0.375,0.554688 0.4375,1.261719 0.1875,2.125 -0.617187,1.605469 -1.851563,2.777344 -3.703125,3.515625 C 49,-0.367188 46.164062,0 42.34375,0 H 0.1875 c -3.207031,0 -5.550781,-0.519531 -7.03125,-1.5625 -1.476562,-1.050781 -1.972656,-2.441406 -1.484375,-4.171875 0.5,-1.476563 1.796875,-2.769531 3.890625,-3.875 1.84375,-0.988281 3.382812,-2.160156 4.609375,-3.515625 1.238281,-1.351562 2.289063,-3.507812 3.15625,-6.46875 L 17.75,-66.9375 c 0.613281,-1.84375 0.921875,-3.753906 0.921875,-5.734375 0,-2.457031 -0.527344,-4.394531 -1.578125,-5.8125 -1.042969,-1.425781 -2.609375,-3 -4.703125,-4.71875 -1.355469,-1.113281 -2.371094,-2.070313 -3.046875,-2.875 -0.679688,-0.800781 -1.015625,-1.753906 -1.015625,-2.859375 -0.125,-2.34375 0.703125,-4.003906 2.484375,-4.984375 1.789062,-0.988281 5.210938,-1.484375 10.265625,-1.484375 h 4.625 c -0.867187,-3.082031 -1.296875,-6.16406 -1.296875,-9.25 0,-3.08203 0.554688,-6.28516 1.671875,-9.60938 2.332031,-6.28906 7.351563,-11.59375 15.0625,-15.90624 7.707031,-4.3125 19.140625,-6.46875 34.296875,-6.46875 z m 0,0"
           id="path13" />
      </g>
    </g>
  </g>
  <g
     fill="#59bbc7"
     fill-opacity="1"
     id="g19"
     transform="translate(-140.77037,-266.70969)">
    <g
       transform="translate(226.19895,561.09609)"
       id="g18">
      <g
         id="g17">
        <path
           d="m 48.640625,-97.8125 c 7.144531,0 12.378906,1.359375 15.703125,4.078125 3.332031,2.710937 5,6.402344 5,11.078125 0,2.835938 -0.433594,5.546875 -1.296875,8.140625 l -17,55.28125 c -0.375,1.480469 -0.5625,2.777344 -0.5625,3.890625 0,1.605469 0.304687,2.871094 0.921875,3.796875 0.625,0.917969 1.488281,1.808594 2.59375,2.671875 0.863281,0.867188 1.476562,1.574219 1.84375,2.125 0.375,0.554688 0.4375,1.261719 0.1875,2.125 -0.617188,1.605469 -1.851562,2.777344 -3.703125,3.515625 C 50.484375,-0.367188 47.648438,0 43.828125,0 H 1.671875 c -3.207031,0 -5.550781,-0.519531 -7.03125,-1.5625 -1.476563,-1.050781 -1.96875,-2.441406 -1.46875,-4.171875 0.492187,-1.476563 1.78125,-2.769531 3.875,-3.875 1.855469,-0.988281 3.394531,-2.160156 4.625,-3.515625 1.226563,-1.351562 2.273437,-3.507812 3.140625,-6.46875 l 16.09375,-53.4375 c 0.363281,-1.113281 0.546875,-2.039062 0.546875,-2.78125 0,-1.351562 -0.308594,-2.429688 -0.921875,-3.234375 -0.617188,-0.800781 -1.539062,-1.632813 -2.765625,-2.5 -1.242187,-0.976563 -2.105469,-1.835937 -2.59375,-2.578125 -0.492187,-0.738281 -0.554687,-1.726562 -0.1875,-2.96875 0.738281,-2.832031 4.617187,-5.328125 11.640625,-7.484375 7.03125,-2.15625 14.367188,-3.234375 22.015625,-3.234375 z m 12.390625,-40.85937 c 4.800781,0 8.804688,1.57421 12.015625,4.71875 3.207031,3.13671 4.8125,6.98437 4.8125,11.54687 0,3.21094 -0.835937,6.35547 -2.5,9.4375 -1.667969,3.07422 -4.011719,5.57031 -7.03125,7.48437 -3.023437,1.90625 -6.382813,2.85938 -10.078125,2.85938 -4.6875,0 -8.605469,-1.56641 -11.75,-4.70313 -3.136719,-3.14453 -4.765625,-7.0625 -4.890625,-11.75 0,-3.08203 0.800781,-6.13281 2.40625,-9.15624 1.601563,-3.01954 3.882813,-5.51563 6.84375,-7.48438 2.957031,-1.96875 6.347656,-2.95312 10.171875,-2.95312 z m 0,0"
           id="path16" />
      </g>
    </g>
  </g>
  <g
     fill="#59bbc7"
     fill-opacity="1"
     id="g22"
     transform="translate(-140.77037,-266.70969)">
    <g
       transform="translate(293.87265,561.09609)"
       id="g21">
      <g
         id="g20">
        <path
           d="m 82.65625,-95.40625 c 2.34375,0 4.160156,0.496094 5.453125,1.484375 1.289063,0.980469 1.9375,2.335937 1.9375,4.0625 0,0.492187 -0.125,1.351563 -0.375,2.578125 -1.59375,5.429688 -5.292969,8.140625 -11.09375,8.140625 H 67.859375 L 54,-33.46875 c -0.625,1.855469 -0.9375,3.765625 -0.9375,5.734375 0,2.21875 0.613281,3.761719 1.84375,4.625 1.238281,0.867187 2.96875,1.296875 5.1875,1.296875 1.96875,0 4.429688,-0.25 7.390625,-0.75 1.476563,-0.363281 2.773437,-0.546875 3.890625,-0.546875 0.863281,0 1.507812,0.277344 1.9375,0.828125 0.4375,0.554688 0.65625,1.261719 0.65625,2.125 0.113281,2.46875 -1.710938,5.460938 -5.46875,8.96875 -3.75,3.511719 -8.835938,6.53125 -15.25,9.0625 -6.40625,2.53125 -13.496094,3.796875 -21.265625,3.796875 -8.375,0 -15.09375,-1.910156 -20.15625,-5.734375 C 6.773438,-7.882812 4.25,-13.125 4.25,-19.78125 c 0,-3.082031 0.492188,-6.039062 1.484375,-8.875 L 17.5625,-65.265625 c 0.613281,-2.101563 0.921875,-3.769531 0.921875,-5 0,-2.46875 -0.585937,-4.5625 -1.75,-6.28125 -1.167969,-1.726563 -2.804687,-3.515625 -4.90625,-5.359375 -1.84375,-1.726562 -3.136719,-3.175781 -3.875,-4.34375 -0.742187,-1.175781 -0.929687,-2.566406 -0.5625,-4.171875 0.5,-1.601563 1.546875,-2.832031 3.140625,-3.6875 1.601562,-0.863281 4.132812,-1.296875 7.59375,-1.296875 H 28.46875 L 40.125,-107.0625 c 4.0625,-4.0625 7.785156,-6.89453 11.171875,-8.5 3.394531,-1.60156 7.804687,-2.40625 13.234375,-2.40625 7.769531,0 11.65625,2.96094 11.65625,8.875 0,1.84375 -0.25,3.57031 -0.75,5.17187 l -2.578125,8.51563 z m 0,0"
           id="path19" />
      </g>
    </g>
  </g>
  <g
     fill="#59bbc7"
     fill-opacity="1"
     id="g25"
     transform="translate(-140.77037,-266.70969)">
    <g
       transform="translate(393.92303,477.41907)"
       id="g24">
      <g
         id="g23">
        <path
           d="m 9.03125,-15.34375 c 2.03125,0 3.738281,0.6875 5.125,2.0625 1.394531,1.367188 2.09375,3.03125 2.09375,5 0,1.367188 -0.371094,2.710938 -1.109375,4.03125 -0.730469,1.3125 -1.742187,2.390625 -3.03125,3.234375 -1.292969,0.835937 -2.746094,1.25 -4.359375,1.25 -1.980469,0 -3.652344,-0.679687 -5.015625,-2.046875 -1.367187,-1.375 -2.074219,-3.046875 -2.125,-5.015625 0,-1.375 0.351563,-2.71875 1.0625,-4.03125 0.707031,-1.320313 1.707031,-2.398437 3,-3.234375 1.289063,-0.832031 2.742187,-1.25 4.359375,-1.25 z m 0,0"
           id="path22" />
      </g>
    </g>
  </g>
  <g
     fill="#59bbc7"
     fill-opacity="1"
     id="g28"
     transform="translate(-140.77037,-266.70969)">
    <g
       transform="translate(416.48273,477.41907)"
       id="g27">
      <g
         id="g26">
        <path
           d="m 43.0625,-50.578125 c 3.445312,0 6.445312,0.523437 9,1.5625 2.5625,1.03125 4.507812,2.449219 5.84375,4.25 1.34375,1.792969 2.015625,3.855469 2.015625,6.1875 0,1.3125 -0.179687,2.527344 -0.53125,3.640625 -1.46875,5.117188 -5.695313,8.355469 -12.671875,9.71875 2.425781,0.710938 4.347656,1.886719 5.765625,3.53125 1.414063,1.648438 2.125,3.683594 2.125,6.109375 0,1.117187 -0.203125,2.433594 -0.609375,3.953125 -1.117188,3.949219 -3.355469,6.875 -6.71875,8.78125 C 43.914062,-0.945312 39.144531,0 32.96875,0 H 1.359375 c -1.0625,0 -1.878906,-0.175781 -2.453125,-0.53125 -0.582031,-0.351562 -0.875,-0.832031 -0.875,-1.4375 0,-0.3125 0.074219,-0.644531 0.21875,-1 0.210938,-0.550781 0.542969,-0.976562 1,-1.28125 0.449219,-0.300781 0.7265625,-0.476562 0.828125,-0.53125 0.8125,-0.507812 1.46875,-1.03125 1.96875,-1.5625 C 2.554688,-6.875 2.988281,-7.75 3.34375,-8.96875 l 9.265625,-32.734375 c 0.195313,-0.65625 0.296875,-1.285156 0.296875,-1.890625 0,-0.5625 -0.08984,-1.03125 -0.265625,-1.40625 -0.179687,-0.382812 -0.417969,-0.828125 -0.71875,-1.328125 -0.460937,-0.65625 -0.6875,-1.1875 -0.6875,-1.59375 0,-0.15625 0.05078,-0.4375 0.15625,-0.84375 0.207031,-0.65625 0.648437,-1.117187 1.328125,-1.390625 0.6875,-0.28125 1.738281,-0.421875 3.15625,-0.421875 z M 39.640625,-36.6875 c 0.351563,-1.113281 0.53125,-2.148438 0.53125,-3.109375 0,-2.632813 -1.492187,-3.953125 -4.46875,-3.953125 H 32.28125 L 28.25,-29.546875 h 3.34375 c 2.125,0 3.804688,-0.515625 5.046875,-1.546875 1.25,-1.039062 2.25,-2.90625 3,-5.59375 z m -5.53125,22.328125 c 0.351563,-1.207031 0.53125,-2.320313 0.53125,-3.34375 0,-2.726563 -1.574219,-4.09375 -4.71875,-4.09375 H 26.125 l -4.328125,14.96875 h 3.875 c 2.175781,0 3.921875,-0.546875 5.234375,-1.640625 1.320312,-1.09375 2.390625,-3.054688 3.203125,-5.890625 z m 0,0"
           id="path25" />
      </g>
    </g>
  </g>
  <g
     fill="#59bbc7"
     fill-opacity="1"
     id="g31"
     transform="translate(-140.77037,-266.70969)">
    <g
       transform="translate(474.28722,477.41907)"
       id="g30">
      <g
         id="g29">
        <path
           d="m 27.109375,-40.171875 c 5.820313,0 10.476563,1.078125 13.96875,3.234375 3.5,2.148438 5.25,5.421875 5.25,9.828125 0,1.667969 -0.304687,3.5625 -0.90625,5.6875 L 42.3125,-10.9375 c -0.05469,0.199219 -0.07813,0.453125 -0.07813,0.765625 0,0.804687 0.328125,1.203125 0.984375,1.203125 0.601562,0 1.117188,-0.265625 1.546875,-0.796875 0.4375,-0.53125 0.726563,-0.796875 0.875,-0.796875 0.257813,0 0.476563,0.179688 0.65625,0.53125 0.175781,0.355469 0.265625,0.761719 0.265625,1.21875 0.05078,1.367188 -0.46875,2.761719 -1.5625,4.1875 -1.085938,1.417969 -2.539062,2.585938 -4.359375,3.5 -1.824219,0.90625 -3.824219,1.359375 -6,1.359375 -2.636719,0 -4.890625,-0.476563 -6.765625,-1.4375 C 26,-2.171875 24.707031,-3.59375 24,-5.46875 c -1.523438,1.824219 -3.320312,3.230469 -5.390625,4.21875 -2.074219,0.992188 -4.304687,1.484375 -6.6875,1.484375 -2.679687,0 -4.929687,-0.519531 -6.75,-1.5625 C 3.347656,-2.367188 1.988281,-3.710938 1.09375,-5.359375 0.207031,-7.003906 -0.234375,-8.738281 -0.234375,-10.5625 c 0,-0.800781 0.078125,-1.582031 0.234375,-2.34375 0.8125,-3.5 2.570312,-6.132812 5.28125,-7.90625 2.707031,-1.769531 5.9375,-2.65625 9.6875,-2.65625 4.195312,0 8.320312,0.65625 12.375,1.96875 l 1.890625,-5 c 0.664063,-2.132812 1,-3.78125 1,-4.9375 -0.05469,-1.21875 -0.460937,-2.128906 -1.21875,-2.734375 -0.761719,-0.613281 -1.929687,-0.921875 -3.5,-0.921875 0.300781,0.8125 0.453125,1.652344 0.453125,2.515625 0,1.867187 -0.710938,3.484375 -2.125,4.859375 -1.417969,1.367188 -3.445312,2.046875 -6.078125,2.046875 -2.480469,0 -4.417969,-0.539063 -5.8125,-1.625 C 10.566406,-28.390625 9.875,-29.75 9.875,-31.375 c 0,-2.53125 1.414062,-4.628906 4.25,-6.296875 2.832031,-1.664063 7.160156,-2.5 12.984375,-2.5 z m -4.25,23 c -1.417969,0 -2.570313,0.546875 -3.453125,1.640625 -0.886719,1.085938 -1.328125,2.261719 -1.328125,3.53125 0,0.8125 0.1875,1.476562 0.5625,1.984375 0.382813,0.5 0.929687,0.75 1.640625,0.75 0.65625,0 1.375,-0.265625 2.15625,-0.796875 0.789062,-0.53125 1.363281,-1.328125 1.71875,-2.390625 L 25.75,-16.9375 c -0.867188,-0.15625 -1.828125,-0.234375 -2.890625,-0.234375 z m 0,0"
           id="path28" />
      </g>
    </g>
  </g>
  <g
     fill="#59bbc7"
     fill-opacity="1"
     id="g34"
     transform="translate(-140.77037,-266.70969)">
    <g
       transform="translate(523.96413,477.41907)"
       id="g33">
      <g
         id="g32">
        <path
           d="m 38.734375,-40.484375 c 3.75,0 6.75,1.34375 9,4.03125 2.25,2.679687 3.375,6.21875 3.375,10.625 0,2.28125 -0.277344,4.511719 -0.828125,6.6875 -1.625,6.53125 -4.402344,11.46875 -8.328125,14.8125 -3.917969,3.34375 -8.433594,5.015625 -13.546875,5.015625 -2.886719,0 -5.382812,-0.496094 -7.484375,-1.484375 -2.105469,-0.988281 -3.789063,-2.394531 -5.046875,-4.21875 l -2.734375,2.359375 c -1.0625,0.90625 -2.105469,1.578125 -3.125,2.015625 C 9.003906,-0.210938 7.84375,0 6.53125,0 H 3.1875 C 1.925781,0 0.953125,-0.265625 0.265625,-0.796875 c -0.6875,-0.53125 -1.03125,-1.300781 -1.03125,-2.3125 0,-0.457031 0.078125,-0.988281 0.234375,-1.59375 l 12.6875,-41.25 c 0.144531,-0.457031 0.21875,-0.835937 0.21875,-1.140625 0,-0.851562 -0.53125,-1.660156 -1.59375,-2.421875 -0.5,-0.457031 -0.855469,-0.828125 -1.0625,-1.109375 -0.199219,-0.28125 -0.226562,-0.644531 -0.078125,-1.09375 0.351563,-1.164062 1.960937,-2.191406 4.828125,-3.078125 2.863281,-0.882813 5.863281,-1.328125 9,-1.328125 2.9375,0 5.097656,0.570312 6.484375,1.703125 1.394531,1.136719 2.09375,2.667969 2.09375,4.59375 0,1.0625 -0.179687,2.125 -0.53125,3.1875 l -3.1875,10.328125 c 2.9375,-2.78125 6.40625,-4.171875 10.40625,-4.171875 z M 30.15625,-19.59375 c 1.007812,-3.445312 1.515625,-6.234375 1.515625,-8.359375 0,-2.320313 -0.683594,-3.484375 -2.046875,-3.484375 -1.21875,0 -2.359375,0.632812 -3.421875,1.890625 L 21.265625,-13.4375 20.8125,-12 c -0.25,0.761719 -0.375,1.546875 -0.375,2.359375 0,1.773437 0.832031,2.65625 2.5,2.65625 1.21875,0 2.382812,-0.882813 3.5,-2.65625 1.113281,-1.769531 2.351562,-5.085937 3.71875,-9.953125 z m 0,0"
           id="path31" />
      </g>
    </g>
  </g>
  <g
     fill="#59bbc7"
     fill-opacity="1"
     id="g37"
     transform="translate(-140.77037,-266.70969)">
    <g
       transform="translate(575.3881,477.41907)"
       id="g36">
      <g
         id="g35">
        <path
           d="m 40.25,-40.171875 c 2.226562,0 4.015625,0.902344 5.359375,2.703125 1.34375,1.792969 2.015625,4.230469 2.015625,7.3125 0,2.6875 -0.484375,5.574219 -1.453125,8.65625 -1.867187,6.230469 -4.867187,12.105469 -9,17.625 C 33.046875,1.644531 28.3125,6.078125 22.96875,9.421875 17.632812,12.765625 12.304688,14.4375 6.984375,14.4375 4.347656,14.4375 2.082031,13.976562 0.1875,13.0625 -1.707031,12.15625 -3.148438,10.941406 -4.140625,9.421875 -5.128906,7.898438 -5.625,6.28125 -5.625,4.5625 c 0,-0.761719 0.132812,-1.601562 0.390625,-2.515625 0.449219,-1.417969 1.210937,-2.503906 2.28125,-3.265625 1.0625,-0.757812 2.324219,-1.140625 3.78125,-1.140625 2.332031,0 4.242187,0.796875 5.734375,2.390625 1.5,1.601562 2.453125,3.796875 2.859375,6.578125 C 12.660156,6.453125 15.644531,5.0625 18.375,2.4375 15.789062,1.976562 13.878906,1.101562 12.640625,-0.1875 11.398438,-1.476562 10.554688,-3.492188 10.109375,-6.234375 L 7.0625,-24.84375 c -0.15625,-0.957031 -0.375,-1.625 -0.65625,-2 -0.273438,-0.382812 -0.636719,-0.578125 -1.09375,-0.578125 -0.355469,0 -0.773438,0.179687 -1.25,0.53125 -0.480469,0.355469 -0.824219,0.53125 -1.03125,0.53125 -0.398438,0 -0.59375,-0.425781 -0.59375,-1.28125 0,-0.707031 0.125,-1.46875 0.375,-2.28125 C 3.71875,-32.804688 5.410156,-35.25 7.890625,-37.25 c 2.488281,-2 5.378906,-3 8.671875,-3 3.238281,0 5.628906,0.964844 7.171875,2.890625 1.539063,1.917969 2.539063,4.875 3,8.875 l 2.28125,16.71875 c 0.144531,1.261719 0.597656,1.890625 1.359375,1.890625 0.914062,0 1.976562,-0.820312 3.1875,-2.46875 1.21875,-1.644531 2.410156,-3.988281 3.578125,-7.03125 -1.523437,-1.363281 -2.6875,-2.929688 -3.5,-4.703125 C 32.835938,-25.847656 32.4375,-27.75 32.4375,-29.78125 c 0,-1.5625 0.203125,-2.976562 0.609375,-4.25 0.601563,-2.019531 1.550781,-3.546875 2.84375,-4.578125 1.289063,-1.039063 2.742187,-1.5625 4.359375,-1.5625 z m 0,0"
           id="path34" />
      </g>
    </g>
  </g>
</svg>
