<?xml version="1.0" encoding="UTF-8" standalone="no"?>
<!DOCTYPE svg PUBLIC "-//W3C//DTD SVG 1.1//EN" "http://www.w3.org/Graphics/SVG/1.1/DTD/svg11.dtd">
<!-- Created with Vectornator (http://vectornator.io/) -->
<svg height="100%" stroke-miterlimit="10" style="fill-rule:nonzero;clip-rule:evenodd;stroke-linecap:round;stroke-linejoin:round;" version="1.1" viewBox="0 0 798.547 455.374" width="100%" xml:space="preserve" xmlns="http://www.w3.org/2000/svg" xmlns:xlink="http://www.w3.org/1999/xlink">
<defs/>
<g id="Ohne-Titel">
<path d="M327.948 214.84C328.633 208.323 328.942 202.166 330.18 196.203C331.383 190.407 333.539 184.81 334.397 178.38C332.802 179.604 331.243 180.878 329.607 182.044C314.852 192.553 299.031 195.869 282.146 187.952C267.484 181.078 261.159 168.016 260.232 152.857C258.53 125.053 266.093 99.9641 286.569 80.163C305.163 62.1819 327.685 57.3499 352.607 62.939C362.123 65.0731 369.813 70.5974 376.691 77.4891C377.449 77.0079 378.095 76.7613 378.516 76.3061C389.171 64.773 402.584 61.88 417.64 63.2616C426.657 64.0891 430.781 68.9219 428.182 77.6559C418.7 109.524 408.973 141.32 399.381 173.156C396.936 181.272 394.447 189.384 392.353 197.594C390.594 204.491 392.669 206.838 399.858 206.553C403.166 206.422 406.447 205.723 409.751 205.392C414.294 204.937 415.99 206.319 414.822 210.702C413.924 214.07 412.115 217.657 409.656 220.072C394.78 234.678 376.538 240.145 356.152 237.535C349.777 236.718 343.374 233.991 337.636 230.922C331.817 227.81 329.108 221.802 327.948 214.84M359.946 97.5752C359.955 93.5002 361.121 88.9497 356.192 86.668C352.274 84.8544 347.482 86.4834 343.436 91.1649C341.392 93.5295 339.261 96.1295 338.228 99.0034C333.968 110.851 329.858 122.767 326.251 134.826C325.046 138.855 325.033 143.414 325.312 147.676C325.803 155.157 328.82 159.194 333.485 159.903C337.825 160.563 341.569 157.704 343.95 150.328C349.505 133.116 354.604 115.758 359.946 97.5752Z" fill="#5abbc7" fill-rule="nonzero" opacity="1" stroke="none"/>
<path d="M131 170.083C132.523 173.197 133.786 176.087 135.593 178.583C139.108 183.438 137.753 188.546 132.031 190.344C130.004 190.981 127.787 191.262 125.654 191.276C112.656 191.361 99.6574 191.327 86.6591 191.318C85.4951 191.317 84.299 191.353 83.1733 191.113C79.6124 190.352 76.3797 188.995 75.4346 184.993C74.4846 180.97 76.6551 178.222 79.7479 176.226C82.8174 174.245 86.0413 172.469 89.3217 170.856C97.7184 166.727 103.654 160.504 107.699 151.951C121.293 123.212 134.991 94.5154 149.17 66.0616C153.512 57.3478 158.69 48.7593 164.951 41.3534C177.936 25.9955 196.002 23.0988 214.906 23.8983C220.681 24.1426 226.518 25.0637 232.14 26.4397C256.164 32.3194 267.538 50.8832 261.091 74.7838C253.515 102.876 245.217 130.775 237.085 158.715C234.944 166.071 234.115 172.824 239.688 179.34C242.68 182.839 240.616 188.272 236.071 189.933C233.48 190.88 230.549 191.249 227.767 191.264C207.604 191.373 187.439 191.342 167.275 191.295C165.471 191.291 163.586 191.111 161.88 190.568C156.68 188.913 155.234 184.431 158.316 179.964C158.691 179.421 159.089 178.738 159.641 178.495C175.642 171.453 174.77 155.185 180.429 141.185C175.771 141.185 171.888 141.185 168.006 141.185C160.507 141.186 153.005 141.074 145.511 141.278C143.961 141.32 141.515 142.151 141.058 143.265C137.484 151.981 134.294 160.855 131 170.083M195.485 57.8336C189.871 56.5896 184.772 57.7633 180.864 61.955C178.411 64.5856 176.274 67.6935 174.7 70.9301C167.877 84.9665 161.303 99.1247 154.677 113.257C154.294 114.073 154.253 115.049 153.969 116.326C164.639 116.326 174.933 116.395 185.224 116.226C186.31 116.208 188.041 115.001 188.346 114.002C192.903 99.0919 197.462 84.1758 201.57 69.1381C202.839 64.4938 201.333 60.1844 195.485 57.8336Z" fill="#5abbc7" fill-rule="nonzero" opacity="1" stroke="none"/>
<path d="M511.719 148.008C514.971 138.56 518.149 129.475 521.084 120.311C523.872 111.606 526.243 102.765 529.115 94.0889C530.726 89.2207 529.356 85.8093 525.555 82.7136C519.714 77.9573 519.724 72.6347 526.629 69.7489C535.421 66.0745 544.804 63.4368 554.18 61.6658C560.75 60.4248 567.775 60.9049 574.528 61.4543C589.117 62.6412 597.065 73.5143 593.127 87.6469C587.283 108.618 580.657 129.371 574.369 150.219C573.745 152.288 572.789 154.343 572.648 156.449C572.499 158.684 573.137 160.973 573.432 163.238C575.627 162.505 577.878 161.9 579.993 160.982C580.988 160.549 581.721 159.514 582.749 158.595C586.736 161.413 586.294 165.285 585.248 168.885C581.921 180.334 573.213 186.555 562.75 190.548C552.509 194.457 541.876 194.553 531.335 191.822C521.508 189.276 514.83 182.889 510.882 172.965C508.1 175.343 505.671 177.483 503.177 179.544C486.543 193.295 463.804 196.117 445.669 186.704C432.349 179.789 425.859 167.099 429.616 152.546C433.934 135.822 439.345 119.38 444.284 102.816C444.854 100.905 445.228 98.9017 446.053 97.1068C448.986 90.7293 447.866 85.8507 441.919 81.5757C437.401 78.3273 437.63 73.302 442.807 70.7512C449.879 67.267 457.448 64.1353 465.145 62.7511C473.866 61.1828 483 61.0286 491.891 61.4866C506.521 62.2402 514.713 73.1455 511.043 87.3299C506.717 104.054 501.313 120.498 496.394 137.069C495.496 140.094 494.386 143.098 493.895 146.194C492.784 153.194 497.587 157.288 504.118 154.559C506.963 153.371 509.088 150.463 511.719 148.008Z" fill="#5abbc7" fill-rule="nonzero" opacity="1" stroke="none"/>
<path d="M594.105 159.95C593.803 134.844 611.8 116.57 637.449 115.331C653.063 114.578 668.318 116.48 684.307 121.663C687.202 111.75 690.691 102.213 692.659 92.3718C694.571 82.8085 689.429 77.9741 678.417 77.6082C678.507 78.398 678.57 79.1342 678.676 79.8644C680.869 95.0409 673.666 105.292 658.383 107.362C652.783 108.121 646.64 107.754 641.201 106.25C626.009 102.049 622.067 86.3 633.019 74.9547C639.766 67.9645 648.432 64.6138 657.788 62.9902C677.892 59.5019 697.881 59.3277 717.419 66.1607C739.633 73.9299 749.41 91.0741 744.191 113.955C741.495 125.771 737.685 137.333 734.377 149.009C733.742 151.249 732.719 153.462 732.572 155.733C732.447 157.667 733.324 159.665 733.758 161.635C735.708 161.163 737.783 160.96 739.566 160.131C740.951 159.486 741.973 158.059 743.161 156.976C746.811 161.099 746.966 166.655 743.602 172.467C738.902 180.587 731.769 185.95 723.148 189.263C711.59 193.704 699.957 193.042 688.492 188.821C681.489 186.242 676.326 181.434 672.298 172.989C670.566 175.298 669.519 177.173 668.039 178.596C654.083 192.015 631.034 196.197 614.159 188.31C602.319 182.776 595.911 173.213 594.105 159.95M660.538 161.244C665.587 160.889 669.653 158.499 671.758 154.061C674.354 148.588 676.153 142.736 678.294 137.054C664.636 132.184 653.277 139.967 653.77 153.141C653.924 157.27 655.57 160.141 660.538 161.244Z" fill="#5abbc7" fill-rule="nonzero" opacity="1" stroke="none"/>
<path d="M57.8062 349.142C60.3083 340.626 62.7776 332.518 65.1191 324.373C66.9458 318.019 65.4355 312.551 60.4219 308.119C58.5507 306.465 56.6853 304.797 54.9155 303.037C49.7022 297.852 51.2344 291.552 58.4246 289.994C62.5916 289.091 67.0216 289.403 71.3329 289.164C72.3128 289.11 73.2918 289.04 74.3118 288.975C74.3118 282.078 73.1738 275.142 74.5326 268.736C78.1079 251.88 90.7113 243.14 106.03 238.527C126.143 232.471 146.787 232.587 167.286 236.657C176.381 238.463 184.741 242.428 190.446 250.278C197.983 260.648 194.802 272.942 183.059 278.007C174.433 281.729 165.339 282.509 156.208 279.835C144.727 276.474 139.381 266.206 142.98 254.807C143.276 253.871 143.564 252.932 143.856 251.993C138.703 250.441 132.842 252.634 129.275 257.679C124.212 264.84 122.838 272.955 124.103 281.47C124.827 286.346 127.904 289.104 133.035 289.153C138.531 289.204 144.101 288.718 149.496 289.476C152.609 289.913 157.184 291.746 157.968 294.028C158.995 297.014 157.828 301.628 156.005 304.541C152.074 310.821 144.921 311.115 138.52 310.795C132.655 310.501 130.671 312.664 129.128 317.992C122.562 340.664 115.48 363.187 108.586 385.765C108.1 387.354 107.473 388.915 107.147 390.536C106.091 395.783 106.041 400.515 110.885 404.529C115.494 408.348 114.536 412.493 108.866 414.664C106.138 415.708 103.045 416.223 100.113 416.242C80.1252 416.377 60.136 416.317 40.1472 416.316C39.4813 416.316 38.7014 416.499 38.1685 416.223C35.3799 414.777 31.3856 413.862 30.1943 411.539C28.2592 407.767 31.8457 405.159 34.9966 403.468C40.3263 400.606 43.4472 396.3 45.1492 390.538C49.1986 376.828 53.5118 363.197 57.8062 349.142Z" fill="#5abbc7" fill-rule="nonzero" opacity="1" stroke="none"/>
<path d="M317.615 407.089C300.82 417.283 283.01 420.758 264.082 417.283C244.257 413.643 235.001 397.889 241.072 378.587C245.913 363.197 250.727 347.787 256.068 332.567C259.564 322.606 258.514 314.328 249.907 307.575C248.348 306.352 246.972 304.839 245.723 303.29C241.25 297.742 242.756 292.167 249.656 290.17C253.085 289.177 256.959 288.855 260.502 289.289C268.517 290.27 274.326 287.522 279.535 281.386C284.243 275.84 289.89 271.023 295.479 266.306C304.314 258.849 314.975 258.216 325.778 259.599C332.226 260.425 335.526 264.533 334.949 271.12C334.433 277 332.78 282.782 331.518 289.167C335.015 289.167 338.613 289.188 342.211 289.162C347.011 289.129 351.896 289.17 353.627 294.903C355.024 299.529 350.938 307.453 345.764 309.154C341.754 310.471 337.31 310.804 333.041 310.929C324.254 311.185 324.225 311 321.699 319.237C316.53 336.092 311.37 352.949 306.264 369.823C305.593 372.038 305.014 374.334 304.813 376.63C304.1 384.774 306.892 387.66 315.167 387.196C318.638 387.001 322.066 386.083 325.538 385.827C327.4 385.69 330.433 385.661 330.96 386.644C331.91 388.415 332.276 391.57 331.28 393.104C328.79 396.938 325.484 400.267 322.33 403.634C321.101 404.946 319.402 405.817 317.615 407.089Z" fill="#5abbc7" fill-rule="nonzero" opacity="1" stroke="none"/>
<path d="M167.087 295.481C183.486 286.557 200.785 284.14 218.608 286.766C231.978 288.736 238.708 299.218 235.154 312.446C230.413 330.089 224.737 347.48 219.438 364.972C216.933 373.243 214.42 381.511 211.822 389.752C210.019 395.469 210.466 400.343 215.416 404.609C219.61 408.224 218.753 412.555 213.552 414.589C210.687 415.709 207.413 416.221 204.318 416.243C184.504 416.388 164.688 416.323 144.872 416.318C143.874 416.318 142.675 416.585 141.914 416.14C139.22 414.562 136.674 412.729 134.072 410.993C135.755 408.541 136.909 405.221 139.225 403.808C145.037 400.262 148.23 395.414 150.11 389.008C156.755 366.368 163.566 343.773 170.612 321.253C172.485 315.266 172.108 310.891 166.514 307.009C161.369 303.438 161.739 300.719 167.087 295.481Z" fill="#5abbc7" fill-rule="nonzero" opacity="1" stroke="none"/>
<path d="M472.325 269.755C464.745 279.027 457.238 288.36 449.547 297.54C446.522 301.15 443.869 306.174 438.137 305.142C432.281 304.088 432.741 298.12 431.314 293.978C428.47 285.722 426.168 277.279 423.201 267.453C420.454 277.316 417.959 285.737 415.863 294.256C415.444 295.959 416.248 298.17 417.018 299.913C418.343 302.912 417.089 304.77 414.436 305.047C410.154 305.493 405.77 305.491 401.478 305.115C398.351 304.841 397.478 301.529 400.228 299.79C404.726 296.946 405.724 292.576 406.978 288.081C410.151 276.712 413.588 265.414 416.526 253.987C417.257 251.145 416.919 247.835 416.329 244.889C415.25 239.505 416.262 237.802 421.811 237.629C425.805 237.505 429.806 237.584 433.804 237.606C440.408 237.643 441.833 238.723 443.729 245.06C446.82 255.392 449.908 265.725 453.273 276.977C456.382 273.237 459.035 270.128 461.6 266.948C467.766 259.303 473.962 251.68 480.004 243.937C483.461 239.507 487.851 237.474 493.409 237.589C498.071 237.685 502.749 237.426 507.393 237.735C508.943 237.839 510.408 239.212 511.912 240.004C511.156 241.362 510.456 242.754 509.633 244.07C508.013 246.662 505.646 249.002 504.78 251.813C500.766 264.838 497.011 277.95 493.534 291.128C492.835 293.779 493.167 297.052 494.055 299.69C495.336 303.496 493.55 305.026 490.563 305.115C481.577 305.382 472.573 305.392 463.587 305.133C460.068 305.032 458.716 301.905 461.318 300.248C467.847 296.092 468.103 289.191 470.018 282.975C471.191 279.164 472.143 275.286 473.418 270.817C473.639 269.733 473.635 269.27 473.632 268.806C473.196 269.122 472.761 269.438 472.325 269.755Z" fill="#5cbcc8" fill-rule="nonzero" opacity="1" stroke="none"/>
<path d="M632.799 253.149C635.632 256.064 638.123 258.806 640.882 261.844C644.524 256.97 649.532 252.997 656.493 251.837C667.867 249.941 675.991 258.226 673.195 269.397C671.583 275.839 669.398 282.137 667.54 288.519C667.104 290.017 666.95 291.597 666.57 293.665C668.691 293.195 670.03 292.899 671.557 292.561C671.694 293.443 671.904 294.085 671.874 294.716C671.513 302.262 661.976 307.646 651.65 306.154C643.143 304.925 638.325 298.864 640.449 291.204C642.175 284.977 644.906 279.035 646.867 272.863C647.364 271.299 646.626 269.342 646.456 267.565C644.545 268.176 641.691 268.215 640.906 269.509C638.792 272.99 637.389 276.946 636.03 280.828C634.639 284.799 633.634 288.905 632.235 293.727C634.727 293.192 636.069 292.905 638.003 292.49C637.766 294.517 637.988 296.453 637.285 297.958C634.575 303.759 629.258 305.685 623.408 306.183C617.215 306.71 610.651 306.131 607.817 299.896C606.247 296.442 606.875 291.508 607.781 287.529C608.951 282.392 611.55 277.595 613.18 272.538C613.642 271.104 612.873 269.273 612.669 267.624C610.871 268.081 608.63 268.032 607.388 269.122C605.876 270.449 604.896 272.631 604.227 274.625C602.273 280.453 600.622 286.382 598.783 292.249C597.816 295.336 596.852 298.271 599.726 301.066C600.02 301.352 598.321 304.924 597.485 304.95C587.842 305.247 578.178 305.385 568.54 305.024C565.654 304.916 565.522 302.823 567.424 300.394C569.788 297.375 572.231 294.164 573.543 290.628C576.255 283.318 578.244 275.739 580.525 268.269C581.427 265.317 581.952 262.573 579.291 259.949C578.664 259.331 579.201 256.102 580.046 255.65C586.809 252.033 594.135 249.991 601.571 252.752C604.27 253.754 606.098 257.102 608.666 259.73C614.818 253.332 622.546 249.281 632.799 253.149Z" fill="#5bbcc8" fill-rule="nonzero" opacity="1" stroke="none"/>
<path d="M522.741 255.028C533.691 250.308 544.49 250.307 555.165 254.283C563.744 257.478 567.336 264.551 565.344 273.485C564.296 278.185 562.73 282.767 561.486 287.426C561.032 289.125 560.834 290.893 560.382 293.382C562.448 292.649 563.714 292.2 565.126 291.699C565.345 292.062 565.877 292.596 565.769 292.816C564.231 295.936 563.325 299.864 560.867 301.943C553.642 308.058 543.035 306.626 535.592 299.091C530.553 303.298 524.969 306.222 518.018 305.523C510.273 304.743 505.307 300.92 503.927 294.337C502.46 287.342 505.887 280.173 512.353 276.709C519.078 273.108 526.207 273.838 533.331 274.834C535.6 275.152 537.821 275.812 539.993 276.3C545.524 265.502 545.349 260.715 539.505 259.259C536.713 268.743 534.591 271.042 528.152 271.17C523.584 271.261 519.175 270.27 517.455 265.509C515.754 260.803 518.627 257.629 522.741 255.028M528.002 288.844C529.121 290.188 530.467 292.817 531.32 292.666C536.473 291.752 536.588 287.08 537.812 283.192C532.096 281.821 530.729 282.539 528.002 288.844Z" fill="#5cbcc8" fill-rule="nonzero" opacity="1" stroke="none"/>
<path d="M699.561 304.376C695.392 304.753 691.555 305.525 687.84 305.135C681.629 304.482 676.678 298.852 676.039 292.676C675.341 285.934 679.457 277.992 686.396 276.188C692.619 274.57 699.413 275.016 705.963 274.862C708.036 274.813 710.133 275.765 712.165 276.246C718.44 266.787 718.119 259.948 711.462 259.311C709.709 269.393 704.445 273.238 695.977 270.624C688.813 268.412 687.183 261.859 692.825 256.962C694.877 255.181 697.577 253.814 700.21 253.098C708.2 250.926 716.303 250.845 724.329 253.132C736.07 256.476 740.418 264.071 737.304 275.848C736.2 280.022 734.85 284.13 733.701 288.293C733.292 289.776 733.145 291.332 732.738 293.651C734.929 292.711 736.206 292.163 737.484 291.615C739.206 295.976 737.263 299.964 731.918 303.171C724.289 307.748 714.416 305.942 708.401 299.022C705.559 300.779 702.753 302.514 699.561 304.376M703.034 283.922C702.514 284.555 701.544 285.197 701.556 285.819C701.6 288.077 701.974 290.327 702.224 292.58C704.282 291.434 706.761 290.672 708.272 289.023C709.58 287.597 709.789 285.165 710.867 282.083C707.913 282.646 705.794 283.05 703.034 283.922Z" fill="#5cbcc8" fill-rule="nonzero" opacity="1" stroke="none"/>
<path d="M209.865 236.197C224.995 226.978 241.822 231.861 246.296 246.468C250.8 261.177 238.951 278.308 223.58 279.31C213.136 279.991 205.005 275.776 201.061 267.074C196.692 257.434 198.904 248.591 205.297 240.583C206.529 239.039 208.136 237.794 209.865 236.197Z" fill="#5abbc7" fill-rule="nonzero" opacity="1" stroke="none"/>
<path d="M371.482 290.179C374.274 286.099 377.847 284.291 382.359 284.932C387.639 285.681 391.374 290.657 390.643 295.591C389.712 301.88 384.153 306.124 377.789 305.406C372.524 304.813 369.248 300.462 369.916 294.706C370.083 293.27 370.799 291.898 371.482 290.179Z" fill="#5cbcc8" fill-rule="nonzero" opacity="1" stroke="none"/>
<path d="M472.557 269.992C472.761 269.438 473.196 269.122 473.632 268.806C473.635 269.27 473.639 269.733 473.463 270.433C473.119 270.522 472.954 270.375 472.557 269.992Z" fill="#ffffff" fill-rule="nonzero" opacity="1" stroke="none"/>
</g>
</svg>
